HIERARCHY
ROOT Hips
{
	OFFSET 0.000000 0.000000 0.000000 
	CHANNELS 6 Xposition Yposition Zposition Yrotation Zrotation Xrotation 
	JOINT Lumbar
	{
		OFFSET 0.000000 0.000000 0.000000 
		CHANNELS 3 Zrotation Xrotation Yrotation
		JOINT Neck
		{
			OFFSET 0.000000 0.445665 0.000000 
			CHANNELS 3 Zrotation Xrotation Yrotation
			End Site
			{
				OFFSET 0.000000 0.227535 0.000000 
			}
		}
		JOINT RightShoulder
		{
			OFFSET 0.019635 0.377685 0.194865 
			CHANNELS 3 Zrotation Xrotation Yrotation
			JOINT RightElbow
			{
				OFFSET 0.000000 -0.243375 0.000000 
				CHANNELS 2 Zrotation Yrotation
				JOINT RightWrist
				{
					OFFSET 0.000000 -0.264825 0.000000 
					CHANNELS 2 Zrotation Xrotation
					End Site
					{
						OFFSET 0.006600 -0.176220 0.000990 
					}
				}
			}
		}
		JOINT LeftShoulder
		{
			OFFSET 0.019635 0.377685 -0.194865 
			CHANNELS 3 Zrotation Xrotation Yrotation
			JOINT LeftElbow
			{
				OFFSET 0.000000 -0.243375 0.000000 
				CHANNELS 2 Zrotation Yrotation
				JOINT LeftWrist
				{
					OFFSET 0.000000 -0.264825 0.000000 
					CHANNELS 2 Zrotation Xrotation
					End Site
					{
						OFFSET 0.006600 -0.176220 -0.000990 
					}
				}
			}
		}
	}
	JOINT RightHip
	{
		OFFSET 0.052140 -0.069960 0.075570 
		CHANNELS 3 Zrotation Xrotation Yrotation
		JOINT RightKnee
		{
			OFFSET 0.000000 -0.402270 0.000000 
			CHANNELS 1 Zrotation
			JOINT RightAnkle
			{
				OFFSET 0.000000 -0.404085 0.000000 
				CHANNELS 3 Zrotation Xrotation Yrotation
				End Site
				{
					OFFSET 0.204105 -0.089430 0.008415 
				}
			}
		}
	}
	JOINT LeftHip
	{
		OFFSET 0.052140 -0.069960 -0.075570 
		CHANNELS 3 Zrotation Xrotation Yrotation
		JOINT LeftKnee
		{
			OFFSET 0.000000 -0.402270 0.000000 
			CHANNELS 1 Zrotation
			JOINT LeftAnkle
			{
				OFFSET 0.000000 -0.404085 0.000000 
				CHANNELS 3 Zrotation Xrotation Yrotation
				End Site
				{
					OFFSET 0.204105 -0.089430 -0.008415 
				}
			}
		}
	}
}
MOTION
Frames: 22
Frame Time: 0.02
-0.00145 0.00011 -0.00077 -175.49138 -26.78831 1.40675 45.53622 -0.78947 -6.04013 -15.38119 3.11897 -1.4085 -23.60749 -3.64668 -12.77724 27.4724 112.97747 14.10095 3.53808 -25.40218 2.33985 15.53858 33.73568 -163.35159 34.91401 -11.89015 27.8565 -2.84603 -8.53544 -20.25897 -6.44644 -3.48172 -3.90559 32.67465 5.30686 4.79981 -24.14307 -6.48915 2.01465 3.21869
-0.00051 0.00011 -0.00042 -175.46632 -26.88088 1.40608 45.46064 -0.76851 -6.15059 -15.19413 3.11421 -1.40922 -23.4428 -3.47728 -13.75035 27.2833 114.75511 14.49012 4.00557 -25.36502 2.69683 14.34619 33.59476 -157.56666 33.10769 -10.88831 28.02254 -2.78194 -8.04899 -20.27013 -6.48362 -3.51678 -3.92545 32.83494 5.34434 5.09484 -24.15744 -6.49402 1.98527 3.20437
0.00043 0.00011 -7e-05 -175.44126 -26.97316 1.40543 45.38519 -0.74761 -6.26087 -15.00761 3.10947 -1.40993 -23.27888 -3.30892 -14.71824 27.09496 116.51853 14.87581 4.46996 -25.32798 3.0527 13.15755 33.45437 -151.79954 31.30689 -9.88956 28.18811 -2.71824 -7.56496 -20.28132 -6.52059 -3.55165 -3.94522 32.9948 5.38165 5.38881 -24.17179 -6.49888 1.95599 3.1901
0.00136 0.00011 0.00027 -175.41627 -27.06544 1.40477 45.30982 -0.72671 -6.37101 -14.82112 3.10473 -1.41065 -23.11473 -3.14014 -15.68791 26.90648 118.289 15.26333 4.93569 -25.29093 3.40858 11.96885 33.31391 -146.03243 29.50613 -8.89081 28.35365 -2.65438 -7.08018 -20.29246 -6.55764 -3.58658 -3.96502 33.15461 5.41902 5.68293 -24.18612 -6.50374 1.9267 3.17582
0.0023 0.00011 0.00062 -175.3913 -27.158 1.40408 45.23437 -0.70574 -6.48128 -14.63409 3.09999 -1.41136 -22.94974 -2.97008 -16.66385 26.71716 120.07774 15.65539 5.40528 -25.25376 3.76557 10.77637 33.17287 -140.24753 27.69988 -7.88896 28.51964 -2.59005 -6.59258 -20.30352 -6.59491 -3.62172 -3.98494 33.31482 5.45654 5.97809 -24.20044 -6.50862 1.89734 3.16151
0.00324 0.00011 0.00097 -175.36604 -27.24971 1.40353 45.15892 -0.68502 -6.59158 -14.44868 3.09523 -1.41207 -22.78807 -2.8053 -17.61489 26.5309 121.78835 16.02782 5.85883 -25.21702 4.11904 9.59587 33.03385 -134.51809 25.91064 -6.8968 28.6843 -2.52767 -6.11603 -20.315 -6.63127 -3.65604 -4.0044 33.47393 5.49341 6.2695 -24.21487 -6.51344 1.86824 3.14732
0.00418 0.00012 0.00132 -175.34142 -27.34303 1.40269 45.08352 -0.6638 -6.70169 -14.2602 3.09052 -1.41279 -22.61989 -2.6302 -18.61434 26.3387 123.65195 16.43872 6.34371 -25.17943 4.47921 8.39264 32.89097 -128.6837 24.08924 -5.8863 28.85148 -2.46148 -5.61798 -20.32563 -6.66941 -3.69195 -4.02474 33.6351 5.5316 6.56831 -24.22906 -6.51837 1.8386 3.13289
0.00512 0.00012 0.00167 -175.31618 -27.43485 1.40213 45.00812 -0.64304 -6.81198 -14.07457 3.08575 -1.4135 -22.45772 -2.46437 -19.57033 26.15196 125.37877 16.81527 6.80051 -25.14267 4.83322 7.21025 32.75155 -122.94547 22.29732 -4.8926 29.01628 -2.39872 -5.13936 -20.33702 -6.70594 -3.72643 -4.04429 33.79433 5.56849 6.85997 -24.24346 -6.52319 1.80951 3.1187
0.00605 0.00011 0.00201 -175.29026 -27.5249 1.40188 44.93249 -0.62286 -6.92252 -13.89225 3.08098 -1.41421 -22.30285 -2.3109 -20.4685 25.97194 126.92049 17.14509 7.21966 -25.10673 5.17976 6.05333 32.61673 -117.32486 20.54135 -3.91946 29.17847 -2.34046 -4.68606 -20.34946 -6.74038 -3.75904 -4.06282 33.95143 5.60413 7.14429 -24.25818 -6.52791 1.7809 3.10473
0.00701 0.00013 0.00239 -175.26847 -27.62534 1.39972 44.85751 -0.59941 -7.03176 -13.6904 3.07644 -1.41494 -22.10581 -2.08939 -21.68522 25.75338 129.47325 17.72953 7.84541 -25.06546 5.56944 4.7498 32.45653 -111.02759 18.57827 -2.82805 29.35658 -2.25725 -4.0918 -20.35623 -6.78646 -3.80201 -4.08704 34.12153 5.64797 7.47506 -24.27128 -6.5333 1.74897 3.08924
0.0079 0.00011 0.0027 -175.23785 -27.70374 1.40167 44.78162 -0.58282 -7.14363 -13.53008 3.07126 -1.41562 -21.99783 -2.00941 -22.23906 25.61606 129.9282 17.78608 8.04183 -25.03582 5.86798 3.75571 32.34922 -106.15832 17.05246 -1.98622 29.5005 -2.22607 -3.79183 -20.37471 -6.80827 -3.82339 -4.09938 34.26369 5.67389 7.70511 -24.28765 -6.53725 1.7244 3.07714
0.00865 -3e-05 0.00282 -175.18393 -27.72225 1.41446 44.6995 -0.58557 -7.26341 -13.48221 3.06543 -1.41616 -22.13633 -2.3386 -20.87945 25.70456 124.275 16.30196 6.99378 -25.03539 5.91517 3.61806 32.39396 -105.24224 16.7354 -1.83548 29.55457 -2.34431 -4.33426 -20.42758 -6.76027 -3.7827 -4.07763 34.33273 5.65545 7.67959 -24.31433 -6.53731 1.71703 3.07288
0.00931 -0.00021 0.00288 -175.12104 -27.71859 1.43147 44.61726 -0.59512 -7.38558 -13.47636 3.05875 -1.41664 -22.36404 -2.80608 -18.87152 25.87422 116.57906 14.30448 5.52669 -25.04718 5.87107 3.78991 32.49071 -105.75407 16.85587 -1.93424 29.57355 -2.51366 -5.16647 -20.49178 -6.68844 -3.72079 -4.0442 34.37305 5.61839 7.55001 -24.34405 -6.53592 1.71751 3.07224
0.00997 -0.00037 0.00296 -175.06158 -27.72461 1.44687 44.53738 -0.60121 -7.50638 -13.45223 3.05169 -1.41716 -22.54933 -3.19664 -17.22215 26.00466 110.04909 12.60249 4.29494 -25.05512 5.86959 3.81514 32.55892 -105.58923 16.77015 -1.91466 29.60599 -2.65518 -5.84245 -20.54934 -6.62968 -3.67052 -4.01714 34.42423 5.58638 7.45326 -24.37153 -6.53516 1.71652 3.07098
0.01079 -0.00054 0.00307 -175.0046 -27.73199 1.46101 44.44734 -0.60887 -7.62892 -13.42462 3.04779 -1.41764 -22.742 -3.64674 -15.30233 26.14459 102.51718 10.63833 2.87361 -25.05575 5.86316 3.86559 32.64724 -105.54252 16.71583 -1.91625 29.64889 -2.81584 -6.61969 -20.61328 -6.56166 -3.61205 -3.98574 34.4847 5.56762 7.4135 -24.40266 -6.5345 1.70715 3.06563
0.01126 -0.00069 0.00311 -174.94064 -27.7316 1.47875 44.37898 -0.61488 -7.74773 -13.41436 3.0372 -1.41817 -22.94138 -4.0058 -13.79121 26.28468 96.58118 9.09677 1.74675 -25.07465 5.84536 3.93764 32.7069 -105.59061 16.70046 -1.93319 29.66164 -2.94922 -7.25837 -20.66655 -6.50695 -3.5653 -3.96042 34.5189 5.51824 7.2352 -24.42688 -6.53328 1.71652 3.06936
0.01084 -0.00079 0.00302 -174.85684 -27.71282 1.50549 44.36573 -0.61459 -7.86153 -13.44053 3.00751 -1.41882 -23.12924 -4.07685 -13.57952 26.39979 95.62637 8.86752 1.54786 -25.13991 5.81921 3.98613 32.66681 -105.52514 16.67832 -1.92806 29.60032 -2.9903 -7.41009 -20.68801 -6.49766 -3.55892 -3.95635 34.48862 5.37726 6.65844 -24.43158 -6.53106 1.78065 3.09969
0.01006 -0.00087 0.00286 -174.76679 -27.68751 1.53568 44.37519 -0.6125 -7.97056 -13.48294 2.97122 -1.41951 -23.32244 -4.05158 -13.80047 26.51378 96.33996 9.07926 1.65837 -25.22341 5.7847 4.04723 32.59765 -105.50996 16.68129 -1.93034 29.50985 -3.00273 -7.41783 -20.69832 -6.50208 -3.56461 -3.95856 34.43275 5.20839 5.95343 -24.42917 -6.52828 1.86245 3.13858
0.00943 -0.00096 0.00272 -174.68147 -27.66665 1.56423 44.37739 -0.61113 -8.07777 -13.51872 2.93856 -1.4202 -23.51836 -4.07269 -13.81427 26.63125 96.23512 9.07441 1.61834 -25.29922 5.75354 4.10702 32.54683 -105.48853 16.67761 -1.9313 29.43227 -3.03151 -7.51415 -20.71335 -6.49831 -3.56282 -3.9568 34.38788 5.05978 5.33456 -24.42986 -6.52566 1.93291 3.17195
0.00887 -0.00105 0.00264 -174.58806 -27.63845 1.59324 44.36669 -0.61 -8.20132 -13.5528 2.90343 -1.42082 -23.69504 -4.08925 -13.84573 26.73692 96.29244 9.11377 1.60253 -25.37269 5.72095 4.15788 32.47573 -105.44765 16.66989 -1.93216 29.3547 -3.04906 -7.5256 -20.72993 -6.50188 -3.56838 -3.95917 34.34452 4.87809 4.59524 -24.43126 -6.52342 2.01759 3.2123
0.00807 -0.00113 0.00241 -174.50992 -27.62465 1.62204 44.38823 -0.60835 -8.29039 -13.59373 2.8716 -1.42158 -23.91267 -4.08856 -13.95682 26.86844 96.46077 9.18018 1.61904 -25.45552 5.69073 4.22765 32.43981 -105.43965 16.66986 -1.93197 29.27099 -3.08124 -7.67241 -20.74087 -6.49385 -3.56216 -3.9548 34.29251 4.75941 4.07669 -24.42939 -6.52022 2.0768 3.24014
0.0067 -0.00118 0.00187 -174.47723 -27.64922 1.64955 44.49326 -0.60154 -8.27913 -13.64947 2.85291 -1.42272 -24.23545 -4.08164 -14.13656 27.04838 96.30235 9.14629 1.61644 -25.55685 5.6681 4.33376 32.50297 -105.51169 16.69168 -1.92389 29.17447 -3.17128 -8.25605 -20.73558 -6.44952 -3.51724 -3.92848 34.22142 4.81764 4.208 -24.42093 -6.51525 2.06088 3.23095
